<svg id="visual" viewBox="0 0 900 600" width="900" height="600" xmlns="http://www.w3.org/2000/svg" xmlns:xlink="http://www.w3.org/1999/xlink" version="1.1"><g stroke-width="1" stroke-linejoin="bevel"><path d="M492 260L497 180L433 211Z" fill="#d652e1" stroke="#d652e1"></path><path d="M492 260L599 213L497 180Z" fill="#d652e1" stroke="#d652e1"></path><path d="M433 211L378 300L492 260Z" fill="#0a2c49" stroke="#0a2c49"></path><path d="M485 79L420 98L497 180Z" fill="#9456cd" stroke="#9456cd"></path><path d="M497 180L420 98L433 211Z" fill="#b456d9" stroke="#b456d9"></path><path d="M281 215L326 311L378 300Z" fill="#0a2c49" stroke="#0a2c49"></path><path d="M608 136L485 79L497 180Z" fill="#163e73" stroke="#163e73"></path><path d="M513 371L620 271L492 260Z" fill="#9456cd" stroke="#9456cd"></path><path d="M492 260L620 271L599 213Z" fill="#b456d9" stroke="#b456d9"></path><path d="M675 138L608 136L599 213Z" fill="#7655bf" stroke="#7655bf"></path><path d="M599 213L608 136L497 180Z" fill="#0e2334" stroke="#0e2334"></path><path d="M378 300L513 371L492 260Z" fill="#d652e1" stroke="#d652e1"></path><path d="M281 215L378 300L433 211Z" fill="#7655bf" stroke="#7655bf"></path><path d="M378 300L379 417L513 371Z" fill="#5951ae" stroke="#5951ae"></path><path d="M288 120L281 215L433 211Z" fill="#0b365e" stroke="#0b365e"></path><path d="M420 98L288 120L433 211Z" fill="#3f4c9c" stroke="#3f4c9c"></path><path d="M376 0L288 120L420 98Z" fill="#0b365e" stroke="#0b365e"></path><path d="M691 202L675 138L599 213Z" fill="#5951ae" stroke="#5951ae"></path><path d="M582 0L485 0L485 79Z" fill="#0e2334" stroke="#0e2334"></path><path d="M620 271L691 202L599 213Z" fill="#3f4c9c" stroke="#3f4c9c"></path><path d="M582 0L485 79L608 136Z" fill="#0e2334" stroke="#0e2334"></path><path d="M485 79L485 0L420 98Z" fill="#0e2334" stroke="#0e2334"></path><path d="M326 311L379 417L378 300Z" fill="#0b365e" stroke="#0b365e"></path><path d="M631 407L694 289L620 271Z" fill="#284688" stroke="#284688"></path><path d="M620 271L694 289L691 202Z" fill="#3f4c9c" stroke="#3f4c9c"></path><path d="M485 0L376 0L420 98Z" fill="#d652e1" stroke="#d652e1"></path><path d="M675 138L582 0L608 136Z" fill="#d652e1" stroke="#d652e1"></path><path d="M513 371L631 407L620 271Z" fill="#5951ae" stroke="#5951ae"></path><path d="M521 489L631 407L513 371Z" fill="#7655bf" stroke="#7655bf"></path><path d="M326 311L324 409L379 417Z" fill="#284688" stroke="#284688"></path><path d="M175 401L324 409L326 311Z" fill="#5951ae" stroke="#5951ae"></path><path d="M182 163L226 262L281 215Z" fill="#d652e1" stroke="#d652e1"></path><path d="M281 215L226 262L326 311Z" fill="#7655bf" stroke="#7655bf"></path><path d="M408 491L513 371L379 417Z" fill="#d652e1" stroke="#d652e1"></path><path d="M408 491L521 489L513 371Z" fill="#0b365e" stroke="#0b365e"></path><path d="M376 0L301 0L288 120Z" fill="#0b365e" stroke="#0b365e"></path><path d="M288 120L182 163L281 215Z" fill="#7655bf" stroke="#7655bf"></path><path d="M324 409L408 491L379 417Z" fill="#d652e1" stroke="#d652e1"></path><path d="M185 87L182 163L288 120Z" fill="#9456cd" stroke="#9456cd"></path><path d="M567 600L599 494L521 489Z" fill="#b456d9" stroke="#b456d9"></path><path d="M521 489L599 494L631 407Z" fill="#163e73" stroke="#163e73"></path><path d="M631 407L725 409L694 289Z" fill="#0a2c49" stroke="#0a2c49"></path><path d="M679 486L725 409L631 407Z" fill="#0e2334" stroke="#0e2334"></path><path d="M694 289L802 202L691 202Z" fill="#9456cd" stroke="#9456cd"></path><path d="M204 0L185 87L288 120Z" fill="#163e73" stroke="#163e73"></path><path d="M792 317L802 202L694 289Z" fill="#0b365e" stroke="#0b365e"></path><path d="M691 202L802 202L675 138Z" fill="#284688" stroke="#284688"></path><path d="M675 138L732 0L582 0Z" fill="#7655bf" stroke="#7655bf"></path><path d="M725 409L792 317L694 289Z" fill="#0e2334" stroke="#0e2334"></path><path d="M599 494L679 486L631 407Z" fill="#3f4c9c" stroke="#3f4c9c"></path><path d="M725 409L785 434L792 317Z" fill="#0e2334" stroke="#0e2334"></path><path d="M827 72L732 0L675 138Z" fill="#163e73" stroke="#163e73"></path><path d="M324 409L278 499L408 491Z" fill="#7655bf" stroke="#7655bf"></path><path d="M408 491L467 600L521 489Z" fill="#0b365e" stroke="#0b365e"></path><path d="M192 462L278 499L324 409Z" fill="#7655bf" stroke="#7655bf"></path><path d="M175 401L326 311L226 262Z" fill="#0b365e" stroke="#0b365e"></path><path d="M120 190L226 262L182 163Z" fill="#163e73" stroke="#163e73"></path><path d="M120 190L134 283L226 262Z" fill="#7655bf" stroke="#7655bf"></path><path d="M301 0L204 0L288 120Z" fill="#7655bf" stroke="#7655bf"></path><path d="M90 129L120 190L182 163Z" fill="#d652e1" stroke="#d652e1"></path><path d="M134 283L175 401L226 262Z" fill="#0b365e" stroke="#0b365e"></path><path d="M90 129L182 163L185 87Z" fill="#5951ae" stroke="#5951ae"></path><path d="M175 401L192 462L324 409Z" fill="#7655bf" stroke="#7655bf"></path><path d="M119 379L192 462L175 401Z" fill="#0a2c49" stroke="#0a2c49"></path><path d="M679 486L785 434L725 409Z" fill="#3f4c9c" stroke="#3f4c9c"></path><path d="M900 209L827 72L802 202Z" fill="#5951ae" stroke="#5951ae"></path><path d="M802 202L827 72L675 138Z" fill="#5951ae" stroke="#5951ae"></path><path d="M900 209L802 202L900 318Z" fill="#0e2334" stroke="#0e2334"></path><path d="M385 600L467 600L408 491Z" fill="#b456d9" stroke="#b456d9"></path><path d="M599 494L695 600L679 486Z" fill="#d652e1" stroke="#d652e1"></path><path d="M679 486L789 495L785 434Z" fill="#0b365e" stroke="#0b365e"></path><path d="M385 600L408 491L308 600Z" fill="#b456d9" stroke="#b456d9"></path><path d="M0 311L119 379L134 283Z" fill="#b456d9" stroke="#b456d9"></path><path d="M134 283L119 379L175 401Z" fill="#b456d9" stroke="#b456d9"></path><path d="M467 600L567 600L521 489Z" fill="#7655bf" stroke="#7655bf"></path><path d="M308 600L408 491L278 499Z" fill="#9456cd" stroke="#9456cd"></path><path d="M827 72L803 0L732 0Z" fill="#284688" stroke="#284688"></path><path d="M90 0L90 129L185 87Z" fill="#0b365e" stroke="#0b365e"></path><path d="M120 190L0 200L134 283Z" fill="#b456d9" stroke="#b456d9"></path><path d="M197 600L278 499L192 462Z" fill="#b456d9" stroke="#b456d9"></path><path d="M197 600L308 600L278 499Z" fill="#d652e1" stroke="#d652e1"></path><path d="M695 600L789 495L679 486Z" fill="#7655bf" stroke="#7655bf"></path><path d="M900 318L802 202L792 317Z" fill="#d652e1" stroke="#d652e1"></path><path d="M900 318L792 317L900 396Z" fill="#9456cd" stroke="#9456cd"></path><path d="M827 72L900 0L803 0Z" fill="#7655bf" stroke="#7655bf"></path><path d="M900 396L792 317L785 434Z" fill="#0a2c49" stroke="#0a2c49"></path><path d="M567 600L695 600L599 494Z" fill="#284688" stroke="#284688"></path><path d="M204 0L90 0L185 87Z" fill="#9456cd" stroke="#9456cd"></path><path d="M900 209L900 64L827 72Z" fill="#d652e1" stroke="#d652e1"></path><path d="M900 532L900 396L789 495Z" fill="#d652e1" stroke="#d652e1"></path><path d="M789 495L900 396L785 434Z" fill="#0e2334" stroke="#0e2334"></path><path d="M96 519L197 600L192 462Z" fill="#0e2334" stroke="#0e2334"></path><path d="M0 68L0 200L90 129Z" fill="#0b365e" stroke="#0b365e"></path><path d="M90 129L0 200L120 190Z" fill="#b456d9" stroke="#b456d9"></path><path d="M119 379L96 519L192 462Z" fill="#7655bf" stroke="#7655bf"></path><path d="M900 64L900 0L827 72Z" fill="#284688" stroke="#284688"></path><path d="M0 432L96 519L119 379Z" fill="#5951ae" stroke="#5951ae"></path><path d="M0 200L0 311L134 283Z" fill="#5951ae" stroke="#5951ae"></path><path d="M695 600L786 600L789 495Z" fill="#0b365e" stroke="#0b365e"></path><path d="M90 0L0 68L90 129Z" fill="#163e73" stroke="#163e73"></path><path d="M96 519L132 600L197 600Z" fill="#7655bf" stroke="#7655bf"></path><path d="M0 600L132 600L96 519Z" fill="#284688" stroke="#284688"></path><path d="M0 311L0 432L119 379Z" fill="#0a2c49" stroke="#0a2c49"></path><path d="M90 0L0 0L0 68Z" fill="#0e2334" stroke="#0e2334"></path><path d="M786 600L900 532L789 495Z" fill="#0a2c49" stroke="#0a2c49"></path><path d="M786 600L900 600L900 532Z" fill="#163e73" stroke="#163e73"></path><path d="M0 432L0 532L96 519Z" fill="#5951ae" stroke="#5951ae"></path><path d="M0 532L0 600L96 519Z" fill="#284688" stroke="#284688"></path></g></svg>